<?xml version="1.0"?>
<svg xmlns="http://www.w3.org/2000/svg" width="613" height="300" viewBox="0 0 613 300" fill="none">
<path d="M552.754 300H0V60.625L58.3558 0H611.944V239.667L552.754 300ZM11.6712 288.333H547.878L600.231 234.875V11.6667H63.2744L11.6712 65.3333V288.333Z" fill="black"/>
<path d="M187.781 97.4584V167.875H173.4V97.4584H187.781Z" fill="black"/>
<path d="M246.303 120.375V167.958C246.303 182.708 234.799 191.667 220.918 191.667C207.038 191.667 197.034 183.333 195.909 171.417H210.164C210.789 176.417 215.208 178.708 221.085 178.708C224.009 178.966 226.897 177.917 228.972 175.842C231.047 173.768 232.097 170.881 231.839 167.958V162.042C227.763 164.568 223.046 165.87 218.251 165.792C205.482 165.864 194.998 155.718 194.658 142.958C194.461 136.638 196.88 130.515 201.345 126.036C205.811 121.556 211.927 119.116 218.251 119.292C223.04 119.219 227.751 120.505 231.839 123V120.458L246.303 120.375ZM231.964 148.375V136.792C229.511 133.114 225.338 130.958 220.918 131.083C217.711 130.886 214.574 132.074 212.302 134.345C210.03 136.616 208.842 139.753 209.039 142.958C209.309 149.294 214.575 154.263 220.918 154.167C225.369 154.341 229.577 152.134 231.964 148.375Z" fill="black"/>
<path d="M303.575 143.583C303.659 153.886 297.514 163.22 288.014 167.217C278.515 171.215 267.541 169.084 260.229 161.823C252.918 154.562 250.714 143.607 254.65 134.085C258.586 124.563 267.883 118.358 278.19 118.375C284.973 118.105 291.562 120.668 296.377 125.45C301.193 130.232 303.8 136.802 303.575 143.583ZM289.695 143.583C289.953 139.287 287.806 135.201 284.121 132.975C280.436 130.749 275.82 130.749 272.134 132.975C268.449 135.201 266.303 139.287 266.561 143.583C266.303 147.88 268.449 151.965 272.134 154.191C275.82 156.418 280.436 156.418 284.121 154.191C287.806 151.965 289.953 147.88 289.695 143.583Z" fill="black"/>
<path d="M392.692 120.458V167.75H378.604V165.083C374.554 167.645 369.848 168.976 365.057 168.917C352.444 167.454 342.93 156.776 342.93 144.083C342.93 131.391 352.444 120.713 365.057 119.25C369.848 119.19 374.554 120.522 378.604 123.083V120.417L392.692 120.458ZM378.52 151.417V137C376.012 133.33 371.743 131.268 367.308 131.583C360.332 131.583 354.678 137.236 354.678 144.208C354.678 151.181 360.332 156.833 367.308 156.833C371.743 157.149 376.012 155.087 378.52 151.417Z" fill="black"/>
<path d="M450.548 142.208V167.875H436.668V143.875C436.668 136.083 432.833 132.083 425.955 132.083C421.627 132.407 417.648 134.578 415.034 138.042V167.875H400.862V120.542H415.034V124.083C421.769 118.799 430.961 117.907 438.587 121.799C446.212 125.691 450.88 133.656 450.548 142.208Z" fill="black"/>
<path d="M522.242 99.2083H518.699V107.542H516.865V99.2083H513.322V97.3333H522.367V99.2083H522.242Z" fill="black"/>
<path d="M534.247 107.667H532.204V101.875L529.536 106.042H528.244L525.493 101.875V107.667H523.409V97.3333H524.91L528.828 103.542L532.788 97.3333H534.247V107.667Z" fill="black"/>
<path d="M166.731 167.75H152.267L142.721 132.458L122.255 167.75H105.915L137.553 113.083L132.426 94L89.7843 167.75H73.4863L127.674 74.25H141.721L147.932 97.5417H162.687L152.642 115.042L166.731 167.75Z" fill="black"/>
<path d="M507.695 97.4584V167.875H493.315V165.208C489.265 167.77 484.559 169.101 479.768 169.042C467.155 167.579 457.641 156.901 457.641 144.208C457.641 131.516 467.155 120.838 479.768 119.375C484.559 119.315 489.265 120.647 493.315 123.208V97.4584H507.695ZM493.315 151.625V136.875C490.73 133.25 486.465 131.205 482.019 131.458C474.974 131.458 469.264 137.167 469.264 144.208C469.264 151.25 474.974 156.958 482.019 156.958C486.492 157.201 490.77 155.102 493.315 151.417V151.625Z" fill="black"/>
<path d="M338.797 132.458C333.15 132.466 327.778 134.893 324.041 139.125V167.875H309.869V120.833H324.041V124.375C328.227 121.134 333.571 119.776 338.797 120.625V132.458Z" fill="black"/>
<path d="M275.606 216.208V193.125H289.945V196.333H279.275V202.708H286.277V205.917H279.275V216.208H275.606Z" fill="black"/>
<path d="M309.744 215.917C308.508 216.395 307.193 216.635 305.868 216.625C304.529 216.635 303.2 216.395 301.95 215.917C300.882 215.521 299.914 214.895 299.115 214.083C298.341 213.268 297.695 212.341 297.198 211.333C296.659 210.388 296.239 209.381 295.947 208.333C295.729 207.193 295.617 206.036 295.614 204.875C295.604 203.659 295.716 202.444 295.947 201.25C296.163 200.123 296.528 199.031 297.031 198C297.538 196.998 298.184 196.072 298.949 195.25C299.747 194.438 300.715 193.812 301.783 193.417C303.034 192.939 304.362 192.699 305.701 192.708C307.026 192.698 308.342 192.938 309.578 193.417C310.652 193.823 311.632 194.447 312.454 195.25C313.218 196.072 313.864 196.998 314.371 198C314.856 199.038 315.22 200.129 315.455 201.25C315.673 202.376 315.785 203.52 315.788 204.667C315.785 205.827 315.673 206.985 315.455 208.125C315.213 209.231 314.85 210.307 314.371 211.333C313.874 212.341 313.228 213.268 312.454 214.083C311.681 214.867 310.76 215.49 309.744 215.917ZM302.825 212.5C303.743 213.048 304.799 213.322 305.868 213.292C306.94 213.303 307.994 213.014 308.911 212.458C309.761 211.935 310.464 211.204 310.953 210.333C311.435 209.469 311.8 208.544 312.037 207.583C312.253 206.612 312.365 205.62 312.37 204.625C312.367 203.602 312.255 202.583 312.037 201.583C311.814 200.618 311.449 199.691 310.953 198.833C310.463 197.975 309.759 197.257 308.911 196.75C307.979 196.239 306.93 195.98 305.868 196C304.799 195.97 303.743 196.244 302.825 196.792C301.975 197.315 301.272 198.046 300.783 198.917C300.301 199.781 299.936 200.706 299.699 201.667C299.483 202.638 299.371 203.63 299.365 204.625C299.366 205.648 299.478 206.668 299.699 207.667C299.929 208.643 300.293 209.583 300.783 210.458C301.274 211.305 301.978 212.009 302.825 212.5Z" fill="black"/>
<path d="M333.128 216.667C330.671 216.928 328.231 216.034 326.525 214.248C324.819 212.461 324.04 209.983 324.416 207.542V193.125H327.876V207.5C327.714 209.131 328.226 210.756 329.293 212C330.361 212.935 331.752 213.414 333.169 213.333C334.585 213.4 335.972 212.923 337.046 212C338.098 210.75 338.595 209.125 338.421 207.5V193.125H341.798V207.5C342.204 209.943 341.442 212.436 339.74 214.235C338.038 216.035 335.591 216.935 333.128 216.667Z" fill="black"/>
<path d="M368.642 216.208H365.39L355.386 200.542C355.095 200.083 354.803 199.5 354.469 198.833C354.469 199.875 354.469 200.458 354.469 200.542V216.208H351.01V193.125H354.469L364.223 208.542C364.581 209.117 364.902 209.716 365.182 210.333C365.182 209.667 365.182 209.083 365.182 208.583V193.125H368.6L368.642 216.208Z" fill="black"/>
<path d="M378.146 193.125H384.607C386.354 193.09 388.088 193.431 389.692 194.125C391.062 194.691 392.256 195.611 393.152 196.792C393.98 197.899 394.614 199.139 395.027 200.458C395.435 201.809 395.632 203.214 395.611 204.625C395.635 206.033 395.452 207.437 395.069 208.792C394.653 210.102 394.034 211.339 393.235 212.458C392.356 213.685 391.16 214.65 389.775 215.25C388.1 215.948 386.297 216.288 384.482 216.25H378.146V193.125ZM385.024 213C386.167 213.027 387.298 212.77 388.317 212.25C389.226 211.803 389.991 211.11 390.526 210.25C391.064 209.449 391.459 208.561 391.693 207.625C391.948 206.66 392.074 205.665 392.068 204.667C392.114 202.585 391.534 200.538 390.401 198.792C389.274 197.159 387.38 196.229 385.399 196.333H381.564V213H385.024Z" fill="black"/>
<path d="M417.869 216.208L415.993 210.917H406.656L404.781 216.208H401.196L409.532 193.125H413.075L421.412 216.208H417.869ZM414.951 207.875L412.158 200C411.813 199.166 411.548 198.301 411.366 197.417C411.366 198.208 410.866 199.083 410.574 200L407.698 207.875H414.951Z" fill="black"/>
<path d="M434.835 196.417V216.208H431.417V196.417H424.873V193.125H441.546V196.417H434.835Z" fill="black"/>
<path d="M449.548 216.208V193.125H452.966V216.208H449.548Z" fill="black"/>
<path d="M475.767 215.917C474.517 216.395 473.188 216.635 471.849 216.625C470.524 216.635 469.208 216.395 467.972 215.917C466.898 215.51 465.918 214.886 465.096 214.083C464.322 213.277 463.688 212.348 463.221 211.333C462.71 210.316 462.332 209.238 462.095 208.125C461.891 206.984 461.794 205.826 461.803 204.667C461.793 203.521 461.891 202.377 462.095 201.25C462.326 200.122 462.704 199.029 463.221 198C463.699 196.991 464.332 196.063 465.096 195.25C465.918 194.447 466.898 193.823 467.972 193.417C469.208 192.938 470.524 192.698 471.849 192.708C473.188 192.699 474.517 192.939 475.767 193.417C476.842 193.823 477.821 194.447 478.643 195.25C479.408 196.063 480.041 196.991 480.519 198C481.023 199.031 481.387 200.123 481.603 201.25C481.821 202.376 481.933 203.52 481.936 204.667C481.933 205.827 481.821 206.985 481.603 208.125C481.38 209.236 481.016 210.315 480.519 211.333C480.051 212.348 479.417 213.277 478.643 214.083C477.821 214.886 476.842 215.51 475.767 215.917ZM468.806 212.5C469.726 213.043 470.781 213.318 471.849 213.292C472.922 213.31 473.978 213.02 474.892 212.458C475.752 211.947 476.458 211.213 476.934 210.333C477.416 209.469 477.781 208.544 478.018 207.583C478.234 206.612 478.346 205.62 478.351 204.625C478.348 203.602 478.236 202.583 478.018 201.583C477.796 200.618 477.43 199.691 476.934 198.833C476.455 197.967 475.749 197.246 474.892 196.75C473.962 196.235 472.912 195.976 471.849 196C470.781 195.974 469.726 196.248 468.806 196.792C467.956 197.315 467.253 198.046 466.764 198.917C466.299 199.789 465.935 200.712 465.68 201.667C465.464 202.638 465.352 203.63 465.346 204.625C465.347 205.648 465.459 206.668 465.68 207.667C465.928 208.637 466.292 209.575 466.764 210.458C467.255 211.305 467.959 212.009 468.806 212.5Z" fill="black"/>
<path d="M508.071 216.208H504.862L494.858 200.542C494.494 199.998 494.173 199.427 493.899 198.833C493.899 199.875 493.899 200.458 493.899 200.542V216.208H490.439V193.125H493.941L503.653 208.542C504.011 209.117 504.331 209.716 504.612 210.333C504.612 209.667 504.612 209.083 504.612 208.583V193.125H508.03L508.071 216.208Z" fill="black"/>
</svg>
