<svg xmlns="http://www.w3.org/2000/svg" viewBox="0 0 500 84.7"><path d="M166.6,19.3,154.2,67.7h-8.1L135.6,34.3,125,67.7h-8.1L104.5,19.3h8.3L121.6,54l9.6-34.7h8.7L149.5,54l8.8-34.7Zm3.8,24.2c0-15.6,6.9-25.3,20.4-25.3S211,27.9,211,43.5s-6.8,25.2-20.2,25.2S170.4,59,170.4,43.5Zm32.3,0c0-6.1-1.4-17.5-11.9-17.5s-12,11.4-12,17.5,1.4,17.5,12,17.5S202.7,49.5,202.7,43.5Zm42.4,24.2-9.4-19.8h-8.3V67.7H219V19.3h17.1c11.7,0,18.2,3.6,18.2,14,0,7.7-3.4,11.9-9.7,13.6l9.8,20.8ZM227.4,40.1h8.3c7.1,0,10.4-1.8,10.4-6.5s-3.5-6.5-10.4-6.5h-8.3Zm35.8-20.8h8.3V59.7h23.9v8H263.2Zm40.1,0h13.8c14.5,0,23.8,9.4,23.8,24.3s-9.3,24.1-23.8,24.1H303.3Zm14.4,40.4c9.2,0,14.9-6.6,14.9-16.1s-6-16.4-14.9-16.4h-6V59.7Zm30.2-16.4c0-15,8.4-24.9,21.4-24.9,9.3,0,17.1,5.1,19.6,14.5l-7.8,2.5c-1.6-4.6-3.9-9-11.8-9s-13,7.1-13,16.9,4.8,17.2,13,17.2,10.8-4.9,11.9-9.2l7.7,2.5c-2.2,9.3-9.7,14.7-19.6,14.7C356.3,68.5,347.9,58.5,347.9,43.3Zm47.7.2c0-15.6,6.9-25.3,20.4-25.3s20.2,9.7,20.2,25.3S429.4,68.7,416,68.7,395.6,59,395.6,43.5Zm32.3,0c0-6.1-1.4-17.5-11.9-17.5s-12,11.4-12,17.5S405.4,61,416,61,427.9,49.5,427.9,43.5ZM446,19.3h8.4V67.7H446Zm54,0V67.7h-8.4L472.8,36.1V67.7h-8.3V19.3h8.3l18.8,32.6V19.3ZM50.5,33.4a1.4,1.4,0,0,0,1.8.2c2.5-1.7,6.7-4.7,11.4-7.6a28.1,28.1,0,0,1,6.5,13.8c3.6-5.2,13.9-18.7,5-25.4s-23.4,11.1-25,17.8A1.2,1.2,0,0,0,50.5,33.4Zm6.2,8.9a1.6,1.6,0,0,0-.8,1,1.3,1.3,0,0,0,1,1.5c2.9.9,7.9,2.4,13,4.2a26.5,26.5,0,0,1-6.7,13.6c6.3-.4,23.3-.7,23-11.8C85.9,41.4,62.9,39.4,56.7,42.3ZM52.8,53.7a1.3,1.3,0,0,0-1.2,0,1.3,1.3,0,0,0-.6,1.7c1.1,2.8,3,7.6,4.8,12.8A27.2,27.2,0,0,1,41,71.4c4.2,4.7,15,17.8,23.6,10.7S59,56.8,52.8,53.7Zm-11.3,4a1.4,1.4,0,0,0-.8-.9,1.4,1.4,0,0,0-1.7.6c-1.5,2.6-4.1,7.1-7,11.7a26.5,26.5,0,0,1-11.7-9.6c-1.1,6.3-4.6,22.8,6.3,25.1C35.8,86.4,42.9,64.4,41.5,57.7ZM31.3,51.4a1.3,1.3,0,0,0,.3-1.2,1.4,1.4,0,0,0-1.5-1c-3.1.5-8.2,1.3-13.6,1.9a27.1,27.1,0,0,1,.2-15.2C11.1,39-4,46.6,1,56.5,5.3,64.8,26.9,56.7,31.3,51.4ZM29.9,39.5a1.1,1.1,0,0,0,1.1-.6,1.4,1.4,0,0,0-.2-1.8c-2.2-2-6-5.5-9.8-9.4a26.2,26.2,0,0,1,12-9.3c-5.9-2.4-21.3-9.6-25.9.5S23,39.4,29.9,39.5Zm9.6-8a1.4,1.4,0,0,0,1.3-1.3c.2-3,.6-8.2,1.2-13.6a26.5,26.5,0,0,1,14.8,3.6C55,14.1,51-2.3,40.3.3,31.2,2.6,34.2,25.5,38.4,31A1.6,1.6,0,0,0,39.5,31.5Z"/></svg>